<?xml version="1.0" standalone="no"?>
<!DOCTYPE svg PUBLIC "-//W3C//DTD SVG 20010904//EN"
 "http://www.w3.org/TR/2001/REC-SVG-20010904/DTD/svg10.dtd">
<svg version="1.0" xmlns="http://www.w3.org/2000/svg"
 width="800.000000pt" height="800.000000pt" viewBox="0 0 800.000000 800.000000"
 preserveAspectRatio="xMidYMid meet">
<metadata>
Created by potrace 1.16, written by Peter Selinger 2001-2019
</metadata>
<g transform="translate(0.000000,800.000000) scale(0.100000,-0.100000)"
fill="#000000" stroke="none">
<path d="M0 4000 l0 -4000 4000 0 4000 0 0 4000 0 4000 -4000 0 -4000 0 0
-4000z m2110 -5 l0 -2035 -380 0 -380 0 0 2035 0 2035 380 0 380 0 0 -2035z
m3805 0 l732 -2030 -375 -3 c-206 -1 -377 -1 -378 1 -2 2 -95 264 -207 583
l-204 579 -855 3 -855 2 -204 -582 -205 -583 -372 -3 c-205 -1 -372 1 -372 6
0 5 328 919 730 2031 402 1113 730 2025 730 2027 0 2 248 3 551 2 l551 -3 733
-2030z"/>
<path d="M4303 4642 l-321 -917 641 -3 c352 -1 642 0 644 2 5 5 -626 1816
-636 1828 -4 5 -151 -405 -328 -910z"/>
</g>
</svg>
